<svg width="75" height="75" viewBox="0 0 75 75" fill="none" xmlns="http://www.w3.org/2000/svg">
<rect width="75" height="75" rx="16" fill="black"/>
<path d="M38.4715 10.4371L37.8684 9.375L14.0625 23.3492V51.6508L19.8891 55.0712L43.996 40.9198V34.0802L39.3762 31.368L41.826 29.9301L46.4464 32.6422V42.359L23.2436 55.9782L23.8467 57.0402L47.6526 43.066V31.934L43.0328 29.2218L45.4826 27.7839L50.1024 30.4954V44.5046L26.9003 58.1243L27.5034 59.1864L51.3087 45.2122V29.7878L46.6888 27.0756L49.1387 25.6377L53.7585 28.3492V46.6508L30.5563 60.2705L31.1594 61.3326L54.9647 47.3584V27.6416L50.3449 24.9294L52.7947 23.4915L57.4151 26.203V48.797L34.2123 62.4167L34.8155 63.4788L58.6213 49.5046V25.4954L54.0015 22.7832L56.4514 21.3453L61.0712 24.0568V50.9432L37.8684 64.5629L38.4715 65.625L62.2768 51.6508V23.3492L56.4508 19.9288L32.3439 34.0802V40.9198L36.9637 43.632L34.5139 45.0699L29.8935 42.3578V32.6416L53.0963 19.0219L52.4932 17.9598L28.6873 31.934V43.066L33.3071 45.7782L30.8573 47.2161L26.2368 44.5046V30.4954L42.1275 21.1681L49.4396 16.8757L48.8365 15.8136L25.0312 29.7878V45.2122L29.6516 47.9244L27.2018 49.3623L22.582 46.6508V28.3492L45.7842 14.7295L45.1811 13.6674L21.3752 27.6416V47.3584L25.995 50.0706L23.5452 51.5085L18.9248 48.797V26.203L42.1281 12.5833L41.525 11.5212L17.7191 25.4954V49.5046L22.339 52.2168L19.8891 53.6547L15.2687 50.9432V24.0568L38.4715 10.4371ZM33.5501 40.2122V34.7878L38.1699 32.0763L42.7898 34.7878V40.2122L38.1699 42.9237L33.5501 40.2122Z" fill="white"/>
</svg>
