<svg width="92" height="31" viewBox="0 0 92 31" fill="none" xmlns="http://www.w3.org/2000/svg">
<rect width="31" height="31" rx="6" fill="black"/>
<path d="M15.9016 4.31399L15.6523 3.875L5.8125 9.651V21.349L8.22084 22.7628L18.185 16.9135V14.0865L16.2755 12.9654L17.2881 12.3711L19.1978 13.4921V17.5084L9.60736 23.1376L9.85665 23.5766L19.6964 17.8006V13.1994L17.7869 12.0783L18.7995 11.484L20.709 12.6048V18.3952L11.1188 24.0247L11.3681 24.4637L21.2076 18.6877V12.3123L19.2981 11.1913L20.3106 10.5969L22.2202 11.7177V19.2823L12.6299 24.9118L12.8792 25.3508L22.7187 19.5748V11.4252L20.8092 10.3042L21.8218 9.7098L23.7316 10.8306V20.1694L14.1411 25.7989L14.3904 26.2379L24.2302 20.4619V10.5381L22.3206 9.41706L23.3332 8.82271L25.2427 9.94349V21.0565L15.6523 26.686L15.9016 27.125L25.7411 21.349V9.651L23.333 8.23723L13.3688 14.0865V16.9135L15.2783 18.0346L14.2657 18.6289L12.356 17.5079V13.4919L21.9465 7.86237L21.6972 7.42338L11.8574 13.1994V17.8006L13.7669 18.9217L12.7543 19.516L10.8446 18.3952V12.6048L17.4127 8.74946L20.435 6.97527L20.1858 6.53629L10.3462 12.3123V18.6877L12.256 19.8087L11.2434 20.4031L9.3339 19.2823V11.7177L18.9241 6.08818L18.6748 5.64919L8.83508 11.4252V19.5748L10.7446 20.6958L9.732 21.2902L7.82223 20.1694V10.8306L17.413 5.20108L17.1637 4.7621L7.32391 10.5381V20.4619L9.23343 21.5829L8.22084 22.1773L6.31107 21.0565V9.94349L15.9016 4.31399ZM13.8674 16.621V14.379L15.7769 13.2582L17.6864 14.379V16.621L15.7769 17.7418L13.8674 16.621Z" fill="white"/>
<path d="M48.247 17.56L46.223 11.787L44.199 17.56H48.247ZM49.443 20.987H43.003L41.968 24H37.161L43.762 6.658H48.684L55.285 24H50.478L49.443 20.987ZM61.7654 6.658V24H57.2574V6.658H61.7654ZM69.8963 20.504H70.8853C72.02 20.504 72.8326 20.3583 73.3233 20.067C73.814 19.7757 74.0593 19.308 74.0593 18.664C74.0593 18.02 73.814 17.5523 73.3233 17.261C72.8326 16.9697 72.02 16.824 70.8853 16.824H69.8963V20.504ZM69.8963 13.466H70.7243C72.135 13.466 72.8403 12.9063 72.8403 11.787C72.8403 10.6677 72.135 10.108 70.7243 10.108H69.8963V13.466ZM65.3883 6.658H72.1043C73.699 6.658 74.9103 7.04133 75.7383 7.808C76.5663 8.57467 76.9803 9.67867 76.9803 11.12C76.9803 11.994 76.8193 12.7223 76.4973 13.305C76.1906 13.8723 75.7153 14.3553 75.0713 14.754C75.7153 14.8767 76.2596 15.0683 76.7043 15.329C77.1643 15.5743 77.5323 15.881 77.8083 16.249C78.0996 16.617 78.3066 17.031 78.4293 17.491C78.552 17.951 78.6133 18.4417 78.6133 18.963C78.6133 19.7757 78.4676 20.4963 78.1763 21.125C77.9003 21.7537 77.5016 22.2827 76.9803 22.712C76.4743 23.1413 75.8533 23.4633 75.1173 23.678C74.3813 23.8927 73.5533 24 72.6333 24H65.3883V6.658ZM85.8211 6.658V24H81.3131V6.658H85.8211Z" fill="black"/>
</svg>
