<?xml version="1.0" standalone="no"?>
<!DOCTYPE svg PUBLIC "-//W3C//DTD SVG 20010904//EN"
 "http://www.w3.org/TR/2001/REC-SVG-20010904/DTD/svg10.dtd">
<svg version="1.0" xmlns="http://www.w3.org/2000/svg"
 width="700.000000pt" height="700.000000pt" viewBox="0 0 700.000000 700.000000"
 preserveAspectRatio="xMidYMid meet">
<metadata>
Created by potrace 1.14, written by Peter Selinger 2001-2017
</metadata>
<g transform="translate(0.000000,700.000000) scale(0.100000,-0.100000)"
fill="#000000" stroke="none">
<path d="M1140 6989 c-546 -71 -990 -482 -1112 -1029 l-23 -105 0 -2355 0
-2355 23 -105 c57 -255 177 -475 357 -655 180 -180 400 -300 655 -357 l105
-23 2355 0 c2257 0 2359 1 2439 19 272 59 495 179 677 362 183 185 301 405
360 675 18 80 19 182 19 2439 l0 2355 -23 105 c-57 254 -176 472 -356 654
-203 205 -478 339 -768 376 -101 12 -4610 12 -4708 -1z m2424 -916 c15 -25 25
-47 24 -49 -3 -2 -1826 -1072 -2051 -1203 l-107 -63 0 -1258 0 -1258 212 -124
c117 -67 216 -122 221 -120 5 1 56 30 114 64 91 54 102 64 88 74 -10 7 -107
65 -216 129 l-199 117 2 1119 3 1120 1100 646 c605 355 1105 647 1111 650 6 2
24 -17 39 -43 22 -37 25 -48 14 -55 -8 -5 -494 -291 -1081 -636 l-1068 -627 0
-1056 0 -1056 214 -126 214 -125 112 65 c89 52 109 67 98 77 -7 6 -104 65
-215 130 l-203 117 0 918 0 917 1110 652 c610 358 1111 651 1114 651 11 0 57
-93 50 -100 -5 -4 -364 -216 -799 -470 -434 -255 -887 -520 -1005 -589 -118
-70 -245 -144 -282 -166 l-68 -39 0 -856 0 -856 209 -122 c115 -67 215 -122
221 -122 24 0 221 123 212 132 -6 6 -99 62 -208 127 l-199 116 0 725 0 725
1100 647 c605 355 1103 647 1107 647 4 1 19 -20 34 -45 24 -41 26 -48 12 -58
-9 -6 -495 -292 -1082 -636 l-1066 -625 0 -655 0 -655 210 -122 c115 -68 214
-123 220 -123 15 0 220 120 220 128 -1 4 -94 61 -208 128 l-207 120 0 524 0
524 1104 648 c607 356 1107 645 1112 642 17 -10 51 -86 42 -94 -4 -5 -136 -84
-293 -175 -434 -255 -761 -447 -1255 -737 -247 -145 -485 -284 -527 -308 l-78
-45 0 -455 0 -455 207 -120 c113 -66 212 -121 220 -123 14 -4 223 115 223 127
0 3 -94 61 -208 127 l-207 122 0 322 0 323 1122 659 1122 658 228 -133 c125
-74 247 -145 270 -158 l43 -24 0 -1325 -1 -1325 -1100 -645 c-605 -355 -1106
-646 -1112 -648 -10 -2 -57 74 -57 92 0 2 486 289 1080 637 l1080 634 0 1255
0 1255 -216 126 -216 126 -113 -66 c-66 -39 -108 -69 -101 -73 6 -4 101 -60
211 -125 l200 -118 0 -1125 0 -1125 -445 -261 c-245 -143 -741 -435 -1103
-647 -362 -213 -661 -387 -665 -387 -4 0 -18 21 -32 46 -21 41 -22 48 -8 58 8
6 495 292 1082 636 l1066 625 0 1055 0 1055 -209 122 c-115 67 -213 124 -218
125 -4 2 -59 -27 -121 -63 l-112 -66 212 -124 213 -125 0 -924 0 -924 -335
-196 c-184 -108 -681 -400 -1104 -648 -423 -249 -772 -452 -775 -452 -3 0 -18
21 -33 48 l-26 47 1051 617 c579 340 1067 627 1085 638 l32 20 -2 852 -3 853
-214 126 -214 126 -111 -65 c-61 -36 -112 -66 -114 -67 -1 -1 93 -59 210 -128
l213 -125 3 -721 2 -720 -87 -51 c-542 -320 -2114 -1241 -2125 -1245 -10 -4
-23 10 -41 42 l-26 48 1082 635 1082 636 0 654 0 654 -215 127 -214 126 -86
-50 c-47 -28 -98 -58 -113 -68 l-28 -17 118 -69 c65 -39 162 -96 216 -127 l97
-57 -2 -521 -3 -520 -115 -67 c-151 -89 -1168 -685 -1679 -985 -222 -131 -409
-240 -415 -242 -7 -3 -24 17 -39 44 l-26 48 1079 634 1080 633 0 457 0 457
-208 121 c-115 67 -212 122 -217 122 -5 0 -58 -28 -117 -62 -104 -60 -108 -63
-88 -78 11 -8 108 -66 215 -128 l195 -114 0 -318 0 -318 -127 -75 c-71 -40
-553 -323 -1073 -629 -520 -305 -970 -569 -1000 -586 l-55 -31 -270 158 -270
159 0 1322 0 1322 1105 649 c608 357 1108 649 1112 649 3 0 18 -21 32 -47z"/>
<path d="M3340 3876 l-205 -121 0 -255 0 -255 209 -122 c115 -68 213 -123 219
-123 6 0 104 55 219 122 l208 122 0 256 0 256 -208 122 c-115 67 -215 122
-223 121 -8 -1 -106 -56 -219 -123z"/>
</g>
</svg>
